<?xml version="1.0" encoding="UTF-8"?>
<!DOCTYPE svg PUBLIC "-//W3C//DTD SVG 1.0//EN" "http://www.w3.org/TR/2001/REC-SVG-20010904/DTD/svg10.dtd">
<!-- Creator: CorelDRAW 2020 (64-Bit) -->
<svg xmlns="http://www.w3.org/2000/svg" xml:space="preserve" width="6.5022mm" height="4.9106mm" version="1.0" style="shape-rendering:geometricPrecision; text-rendering:geometricPrecision; image-rendering:optimizeQuality; fill-rule:evenodd; clip-rule:evenodd"
viewBox="0 0 650.22 491.06"
 xmlns:xlink="http://www.w3.org/1999/xlink"
 xmlns:xodm="http://www.corel.com/coreldraw/odm/2003">
 <defs>
  <style type="text/css">
   <![CDATA[
    .fil0 {fill:#979FEE}
   ]]>
  </style>
 </defs>
 <g id="Capa_x0020_1">
  <metadata id="CorelCorpID_0Corel-Layer"/>
  <g id="_2256517960144">
   <path class="fil0" d="M55.49 245.55l0 195.87c0,12.31 9.22,27.58 18.61,35.74 9.39,8.16 26.96,16.17 41.13,16.17l116.74 0c8.48,0 19.01,-9.15 19.01,-16.52l0 -134.5 130.32 0 0 134.5c0,7.37 10.53,16.52 19.01,16.52l116.75 0c29.43,0 59.73,-26.34 59.73,-51.91l0 -195.87c0,-20.06 -41.14,-23.79 -43.45,0 -1.37,14.17 0.01,141.03 0.01,165.19 0,53.23 3.47,44.83 -108.61,44.83l0 -134.5c0,-7.37 -10.52,-16.52 -19,-16.52l-179.2 0c-8.47,0 -19,9.15 -19,16.52l0 134.5 -82.81 0c-30.93,0 -25.79,-24.16 -25.79,-43.65l0 -132.15c0,-26.2 6.85,-50.73 -24.44,-50.73 -8.48,0 -19.01,9.15 -19.01,16.51z"/>
   <path class="fil0" d="M-8.31 208.98c0,14.72 11.68,18.88 25.79,18.88 6.74,0 31.42,-17.19 38.02,-21.23 44.54,-27.31 106.65,-64.88 148.94,-92.38l111.7 -69.28 74.46 46.2c12.5,8.02 24.69,14.93 37.24,23.08l75.26 46.68c12.55,8.16 24.74,15.06 37.24,23.09 7.66,4.92 68.39,45.02 77.17,45.02 16.39,0 24.44,-7 24.44,-21.24 0,-10.62 -23.04,-22 -35.29,-29.51l-265.27 -164.7c-24.14,-14.48 -25.14,-15.54 -49.69,-0.48l-285.89 177.46c-7.39,4.39 -14.12,8.11 -14.12,18.41z"/>
   <path class="fil0" d="M55.49 19.02l0 80.23c0,8.55 9.42,16.52 24.44,16.52 8.48,0 19.01,-9.15 19.01,-16.52l0 -59 67.87 0c9.85,0 19.01,-8.18 19.01,-21.23 0,-7.37 -10.53,-16.52 -19.01,-16.52l-92.31 0c-8.48,0 -19.01,9.15 -19.01,16.52z"/>
  </g>
 </g>
</svg>
