<?xml version="1.0" encoding="UTF-8"?>
<!DOCTYPE svg PUBLIC "-//W3C//DTD SVG 1.0//EN" "http://www.w3.org/TR/2001/REC-SVG-20010904/DTD/svg10.dtd">
<!-- Creator: CorelDRAW 2020 (64-Bit) -->
<svg xmlns="http://www.w3.org/2000/svg" xml:space="preserve" width="86.411mm" height="33.934mm" version="1.0" style="shape-rendering:geometricPrecision; text-rendering:geometricPrecision; image-rendering:optimizeQuality; fill-rule:evenodd; clip-rule:evenodd"
viewBox="0 0 8641.1 3393.4"
 xmlns:xlink="http://www.w3.org/1999/xlink"
 xmlns:xodm="http://www.corel.com/coreldraw/odm/2003">
 <defs>
  <style type="text/css">
   <![CDATA[
    .fil0 {fill:white}
   ]]>
  </style>
 </defs>
 <g id="Capa_x0020_1">
  <metadata id="CorelCorpID_0Corel-Layer"/>
  <g id="_2233808044016">
   <path class="fil0" d="M5628.66 1355.64c103.61,26.48 212.2,46.7 340.62,46.7l1504.42 0 0 62.28c-234.18,0 -1677.55,20.6 -1786.94,-17.02 -49.6,-17.07 -56.26,-18.65 -58.1,-91.96zm2029.55 108.98l-85.15 0 0 -249.09c501.83,0 843.55,-137.84 936.72,-140.12 12.97,170.93 71.56,226.47 -344.06,323.17 -149.18,34.71 -334.51,66.04 -507.51,66.04zm-2043.75 -295.8c57.65,5.26 141.19,25.45 199.46,30.29l467.64 16.36c98.44,-0.38 147.32,13.54 226.57,16.13 315.33,10.35 648.25,-0.5 965.57,-0.5l0 46.71c-141.86,0 -1589.04,10.51 -1695.53,-8.33 -153.79,-27.24 -161.58,-16.22 -163.71,-100.66zm2455.34 -124.54c0,-122.24 24.45,-132.59 42.58,-217.96 102.6,9.38 310.51,16.44 340.62,140.11 -117.88,2.89 -247.57,77.85 -383.2,77.85zm-1078.64 -638.3c60.31,0 86.51,-25.16 99.34,-77.84 80.51,59.14 14.2,31.54 14.2,108.99 0,39.44 34.6,108.96 99.35,108.96 74.36,0 66.11,-41.24 107.84,-53.38 59.84,-17.37 5.7,42.53 5.7,100.09 0,72.85 72.75,93.41 127.73,93.41 63.92,0 91.53,-136.26 94.51,-36.84 0.04,1.18 -45.49,187.28 89.94,186.71 65.86,-0.27 87.67,-49.41 113.6,-103.17 53.61,31.13 162.62,75.92 241.27,77.85 -30.54,143.85 -28.38,93.87 -28.38,249.08 -168.87,0 -302.27,31.15 -482.56,31.15l-766.41 0c-200.45,0 -368.38,-16.27 -553.51,-15.56 -179.84,0.68 -398.71,-33.89 -539.32,-46.72 0,-178.49 23.94,-399.71 53.05,-564.52 11.19,-63.21 27.65,-123.98 32.11,-182.75 171.4,43.8 101.51,249.1 468.36,249.1 319.84,0 484.62,-404.79 610.29,-404.79 57.04,0 112.36,52.46 156.11,77.86 -82.74,135.53 2.87,202.37 56.78,202.37zm-794.8 0c-217.25,0 -186.51,-9.05 -301.15,-136.69 -88.83,-98.87 -250.28,-228.08 -301.37,-10.47 -91.78,390.98 -78.74,632.57 -78.74,1034.54 0,259.03 127,295.8 411.61,295.8 591.18,0 1714.84,42.33 2246.1,-73.84 193.29,-42.28 481.13,-103.4 461.45,-357.9 -47.71,-616.83 -598.63,-359.97 -819.53,-518.34 -64.34,-46.12 -27.51,-108.54 -213.29,-108.54 -56.78,-117.72 -63.23,-140.12 -227.08,-140.12 -8.85,-116.5 -82.77,-140.11 -198.71,-140.11 -5.66,-74.86 -46.26,-109.92 -103.56,-135.64 -96.92,-43.51 25.48,49.16 -152.12,-66.46 -306.26,-199.37 -410.04,357.77 -723.61,357.77z"/>
   <path class="fil0" d="M263.8 3301.65l4.23 4.65c-0.27,-0.31 -5.65,-3.09 -4.23,-4.65zm-269.66 -291.81l0 -83.9c6.85,-54.03 29.15,-91.33 70.95,-91.33 124.7,0 125.07,295.8 411.6,295.8 78.22,0 100.88,1.58 156.12,-62.28 -8.8,-116.1 -90.44,-124.25 -172.11,-153.7 -208.71,-75.28 -438.18,-203.13 -438.18,-500.16 0,-53.25 37.75,-148.7 58.87,-184.52 224.29,-380.46 649.11,-204.67 735.93,-204.67 61.34,0 78.42,-28.01 127.6,-1.13 142.77,78.02 242.46,437.02 42.71,437.02 -93.59,0 -193.88,-217.95 -354.82,-217.95 -114.59,0 -113.54,22.42 -113.54,108.99 0,162.34 610.28,85.7 610.28,560.45 0,487.64 -672.77,573.75 -989.47,400.37 -77.17,-42.24 -133.99,-184.52 -145.94,-302.99zm212.89 276.25l30.51 8.55 -30.51 -8.55zm0 0l-28.38 -15.57 28.38 15.57zm411.58 -108.98l-27.67 17.91 27.67 -17.91zm0 0c26.32,-43.12 68.8,-64.52 67.39,-122.57 -1.44,-59.17 -42.61,-85.94 -67.39,-126.53 119.37,34.98 149.36,210.93 0,249.1zm0 -249.1l-28.38 -15.55 28.38 15.55zm-28.38 -15.55l-30.51 -8.57 30.51 8.57zm-411.58 358.06c-81.2,-20.74 -92.57,-79.47 -115.82,-168.8 -8.03,-30.91 -33.88,-142.76 -15.09,-176.11 24.04,-42.72 -22.88,-20.49 45.75,-28.73 -51.85,118.53 32.94,288.1 85.16,373.64zm340.62 -389.21c15.09,-16.55 53.83,24.71 15.81,8.09 -0.32,-0.13 -39.58,17.98 -15.81,-8.09zm-42.58 -15.56c15.09,-16.54 53.83,24.7 15.81,8.09 -0.32,-0.14 -39.58,17.99 -15.81,-8.09zm-28.39 -15.57l4.24 4.63c-0.29,-0.29 -5.65,-3.09 -4.24,-4.63zm-42.58 -15.57l4.24 4.65c-0.28,-0.31 -5.65,-3.09 -4.24,-4.65zm-42.58 -15.56l30.53 8.55 -30.53 -8.55zm0 0l-28.38 -15.57 28.38 15.57zm-28.38 -15.57l-28.38 -15.58 28.38 15.58zm425.78 -591.59c49.29,12.6 86.48,47.48 123.56,82.42 22.82,21.51 91.93,87.02 103.53,104.4 -59.69,-15.26 -215.4,-169.33 -227.09,-186.82zm-28.38 -15.57l4.23 4.63c-0.27,-0.29 -5.65,-3.09 -4.23,-4.63zm-425.78 591.58c-97.78,-28.63 -212.45,-175.71 -226.13,-297.6 -17.32,-154.31 74.48,-328.46 169.36,-356.26 -55.84,91.46 -164.97,185.05 -134.78,348.9 14.11,76.62 33.34,122.39 69.28,174.41 44.27,64.06 90.69,78.83 122.27,130.55zm-28.39 -669.42l-28.38 15.56 28.38 -15.56zm0 0l0 0zm28.39 -31.14l4.23 4.65c-0.27,-0.31 -5.65,-3.09 -4.23,-4.65zm553.52 -15.56l4.22 4.63c-0.27,-0.29 -5.65,-3.09 -4.22,-4.63zm-525.14 0l4.24 4.63c-0.28,-0.29 -5.65,-3.09 -4.24,-4.63zm42.58 -15.57l4.24 4.63c-0.28,-0.29 -5.65,-3.09 -4.24,-4.63z"/>
   <path class="fil0" d="M4464.85 3254.95c17.68,36.66 30.29,52.6 56.77,77.85 -61.47,-5.61 -79.92,-8.74 -85.15,-77.85l28.38 0zm496.74 -295.79c90.08,8.22 246.52,273.63 298.05,358.06 -75.84,-22.21 -147.15,-174.25 -223.67,-268.4 -30.3,-37.29 -49.3,-48.58 -74.38,-89.66zm70.97 -264.67c-19.04,15.8 29.84,15.58 -42.58,15.58 17.35,-14.4 -15.95,-10.1 42.58,-15.58zm0 0c62.03,-92.85 139,-47.47 56.76,-217.94 33.78,-24.81 14.79,-18.85 56.78,-31.13 -33.11,75.68 12.07,51.11 14.2,155.66 -33.6,38.86 -72.1,79.2 -127.74,93.41zm-567.71 560.46c43.2,-70.76 69.77,-77.14 71.44,-201.84 1.56,-115.74 14.5,-167.04 13.9,-280.56l-5.16 -415.1c-13.82,-66.51 -24.58,-54.28 -51.8,-98.85 125.47,36.74 85.15,250.8 85.15,513.75 0.02,106.11 0.12,201.98 -9.72,285.11 -13.76,116.4 -12.97,170.88 -103.81,197.49zm14.2 -1089.76c-5.37,8.77 -23.41,46.37 -25.89,49.46 -29.8,37.16 28.15,19.58 -45.09,28.37 12.34,-50.69 24.76,-64.3 70.98,-77.83zm0 0l0 0zm28.38 -31.15l4.24 4.65c-0.29,-0.31 -5.65,-3.09 -4.24,-4.65zm28.38 -15.56c15.08,-16.54 53.84,24.7 15.82,8.1 -0.34,-0.15 -39.59,17.98 -15.82,-8.1zm56.77 -15.57l4.24 4.63c-0.28,-0.29 -5.65,-3.09 -4.24,-4.63zm-212.89 1136.48c3.12,153.92 140.01,156.11 283.77,155.98 507.38,-0.44 272.98,-226.52 269.55,-233.59 -21.81,-44.96 -14,-89.5 -14,-155.91 74.7,21.86 209.24,304.75 280.35,361.9 56.67,45.55 183.03,26.81 273.37,27.51 163.24,1.25 145.58,-7.91 241.08,-78.06 0,-196.93 -60.76,-77.11 -221.15,-302.29 -60.6,-85.06 -188.28,-229.75 -190.45,-335.99l197.87 -94.42c130.57,-57.39 47.23,-227.42 -268.24,-200.83 -101.43,8.53 -146.93,26.77 -199.28,92.86 14.8,69.72 28.22,49.99 42.58,108.98 -193.48,142.12 -170.92,73.77 -170.35,-124.52 0.44,-144.93 20.42,-355.54 0.04,-451.51 -106.87,-27.3 -226.1,13.85 -324.97,48.32 -50.76,17.69 -90.05,36.69 -139.18,65.28 -27.95,16.27 -39.03,21.02 -59.01,46.06l-18.84 64.87c7.81,72.15 23.05,46.01 56.24,59.21 32.69,13.02 75.38,-12.87 74.98,151.27l-14.42 639.85c-5.26,105.47 -27.51,71.26 -99.94,155.03z"/>
   <path class="fil0" d="M1924.35 3317.22l0 0zm0 0c-27.55,-8.01 -21.96,-2.86 -42.57,-15.57 15.95,-65.57 48.41,-54.52 65.74,-145.83 20.12,-106.13 23.94,-295.01 -0.17,-393.15 -20.88,-85.06 -42.71,-69.72 -79.77,-130.44 124.68,31.85 128.35,145.32 128.15,311.62 -0.08,83.53 -6.72,126.65 -15.02,201.67 -11.48,103.84 -50.22,90.84 -56.36,171.7zm-652.87 -731.69c0,67.06 134.58,39.72 93.37,335.92 -27.1,194.82 38.29,252.37 -93.37,349.07 2.55,10.44 10.86,29.75 11.62,32.86 9.1,37.58 14.01,1.06 2.58,29.42 -19.13,-11.79 -15.69,-8.52 -42.58,-15.58l0 -62.27c118.48,-34.7 85.16,-323.53 85.16,-498.18 0,-120.79 -91.04,-92.86 -99.36,-202.39 52.62,-15.41 18.34,-15.72 70.96,-31.13 -17.15,28.1 -28.38,27.36 -28.38,62.28zm42.58 -77.85l4.24 4.65c-0.28,-0.32 -5.65,-3.09 -4.24,-4.65zm581.9 -46.71c-11.5,18.85 -32,50.88 -47.78,72.14 -28.91,38.96 -32.5,40.28 -79.96,52.42 28.65,-46.93 71.97,-108.21 127.74,-124.56zm0 0l27.67 -17.89 -27.67 17.89zm-723.83 124.56c19.58,80.41 99.35,95.71 99.35,155.67l0 358.08c0,115.4 -85.15,88.84 -85.15,186.81 0,135.69 335.02,115.29 448.41,87.09 221.71,-55.17 62.52,-172.57 62.52,-258.35 0,-147.26 -17.18,-316.15 28.38,-420.34 233.75,-59.72 187.31,174.35 170.52,405.01 -7.01,96.46 -38.99,119.9 -71.16,186.59 48.95,101.47 107.97,108.97 255.47,108.97 99.32,0 312.24,-13.31 312.24,-108.97 0,-64 -20.97,-68.29 -45.24,-106.06 -82.39,-128.19 26.54,-498.89 -128.54,-699.68 -83.18,-107.71 -277.68,-128.64 -388.47,-44.51 -56.71,43.08 -58.9,96.2 -133.2,102.98 -23.72,-54.24 16.82,-116.54 -51.06,-146.32 -28.29,-12.43 -384.24,45.89 -474.07,193.03z"/>
   <path class="fil0" d="M505.07 1231.1c43.4,11.09 54.55,24.22 85.16,46.71l0 186.81 -28.38 0c0,-182.01 10.03,-124.11 -56.78,-233.52zm-70.95 -233.52c-128.17,0 -284.59,39.48 -150.45,-149.45 25.56,-36.03 50.15,-70.19 76.3,-103.12l72 -94.61c118.68,-109.24 87.3,170.03 87.3,284.9 0,47.86 -41.59,62.28 -85.15,62.28zm85.15 -420.34c114.09,10.41 85.16,138.44 85.16,326.93 0,88.06 -18.67,123.12 -85.16,140.11 49.79,-81.56 36.9,-8.82 43.5,-139.1 10.85,-213.92 45.6,-182 -43.5,-327.94zm141.92 -311.37c-48.9,80.11 -82.39,107.05 -123.48,160.34l-384.94 496.28c-63.02,101.46 -92.3,153.14 -59.28,308.61 -65.34,-37.93 -27.62,7.82 -41.42,-48.21 -35.72,-145.24 66.35,-278.46 144.31,-368.23l269.59 -342.6c54.38,-59.96 120.98,-184.44 195.22,-206.19zm14.2 -15.56l-14.2 15.56 14.2 -15.56zm28.38 -15.57l-28.38 15.57 28.38 -15.57zm0 0l27.67 -17.91 -27.67 17.91zm42.58 -31.13l4.24 4.63c-0.29,-0.29 -5.65,-3.09 -4.24,-4.63zm-752.21 902.93l0 9.23c0.33,190.35 13.27,164.24 326.52,161.93 260.32,-1.94 153.3,20.31 198.61,233.63 99.89,0 199.45,0.16 299.29,1.36 72.05,0.86 86.58,14.16 98.3,-47.86 3.99,-21.19 -0.2,-140.28 -0.2,-171.47 118.25,-10.79 99.35,-41.55 99.35,-233.52 0,-42.03 -6.77,-42.92 -14.2,-77.83 -41.75,-10.67 -43.31,-15.58 -99.33,-15.58l0 -669.42c0,-268.91 -289.69,-102.47 -377.22,22.12 -140.46,199.95 -531.12,600.84 -531.12,787.41z"/>
   <path class="fil0" d="M4081.64 3332.8l4.24 4.63c-0.28,-0.29 -5.64,-3.09 -4.24,-4.63zm-525.13 -15.58l30.52 8.57 -30.52 -8.57zm411.6 -62.27c59.09,15.11 70.05,29.86 99.34,77.85 -36.58,-10.72 -79.95,-48.8 -99.34,-77.85zm-127.74 -77.84c-38.33,0 -39.14,-7.43 -70.97,-15.57 -22.38,-105.4 -41.99,-202.38 113.55,-202.38 3.05,40.25 19.35,217.95 -42.58,217.95zm-283.86 140.11c-76.01,-19.41 -126.71,-85.81 -129.3,-187.07 -1.74,-68.53 10.7,-90.1 37.15,-131.95 31.63,-50.03 34.8,-55.53 92.15,-70.19 -37.1,60.79 -91.8,96.1 -94.95,188.42 -3.72,109.55 55.07,135.46 94.95,200.79zm354.82 -404.76c110.5,32.36 95.65,279.65 -28.38,311.36 59.68,-97.75 56.76,-32.02 56.76,-217.95 0,-47.52 -13.63,-62.83 -28.38,-93.41zm-326.43 0l-28.39 15.55 28.39 -15.55zm28.38 -15.58l-28.38 15.58 28.38 -15.58zm0 0l27.68 -17.9 -27.68 17.9zm-28.38 -373.63c-48.26,79.05 -95.6,76.9 -42.57,186.82 -49.14,-12.56 -76.91,-16 -52.96,-101.72 13.39,-47.98 55.49,-73.37 95.53,-85.1zm283.85 -15.57c52.71,13.47 50.01,12.2 72.15,60.97 39.13,86.14 31.82,177.42 13.01,265.96l-56.22 17.48c36.36,-64.91 42.02,-18.48 42.02,-126.45 0,-131.36 -25.9,-144.14 -70.96,-217.96zm-255.47 0l-28.38 15.57 28.38 -15.57zm0 0l27.68 -17.9 -27.68 17.9zm42.58 -31.13l4.24 4.63c-0.28,-0.3 -5.65,-3.09 -4.24,-4.63zm42.58 -15.58l4.24 4.65c-0.28,-0.31 -5.65,-3.09 -4.24,-4.65zm681.25 778.42l-12.79 -110.51c-2.43,-1.42 -6.74,-3.66 -9.42,-5.24 -41.27,-24.53 -69.97,-22.25 -77.31,-195.44 -4.76,-112.5 15.56,-250.94 -18.83,-337.41 -147.24,-370.31 -866.19,-166.39 -830.82,84.76 10.05,71.44 120.57,177.39 287.48,-53.01 33.76,-46.59 52,-52.59 122.37,-52.59 57.57,94.3 42.58,84.81 42.58,233.53 -792.05,0 -526.33,723.49 -101.83,573.3 89.8,-31.77 118.11,-105.47 196.98,-40.67 195.69,160.74 334.96,-47.79 401.59,-96.72z"/>
   <path class="fil0" d="M6111.2 3317.22l4.24 4.64c-0.28,-0.3 -5.65,-3.09 -4.24,-4.64zm-42.58 -15.57l4.24 4.65c-0.28,-0.31 -5.65,-3.09 -4.24,-4.65zm-28.38 -15.56l0 0zm0 0l-28.38 -15.57 28.38 15.57zm454.16 -140.11l4.24 4.63c-0.28,-0.29 -5.64,-3.08 -4.24,-4.63zm56.78 -15.57l-27.68 17.91 27.68 -17.91zm28.38 -15.58l-28.38 15.58 28.38 -15.58zm0 0l27.68 -17.89 -27.68 17.89zm-425.78 -435.89c0,-137.01 198.71,-162.29 198.71,0 0,63.54 -44.51,46.7 -156.13,46.7 -32.71,0 -42.58,-10.83 -42.58,-46.7zm184.51 -155.69c134.17,34.29 136.85,221.48 42.58,249.1 26.72,-125.78 66.16,-70.98 -42.58,-249.1zm0 0l-30.51 -8.57 30.51 8.57zm-326.43 747.27c-114.61,-33.56 -211.33,-224.62 -198.51,-403.81 7.04,-98.28 31.8,-165.25 74.35,-230.56 39.02,-59.87 95.65,-125.86 166.74,-144.03 -18.98,28.39 -41.86,40.4 -67.61,65.96 -25.54,25.37 -41.75,44.86 -60.66,73.56 -86.75,131.71 -94.63,333.59 -33.38,473.69 39.9,91.22 76.44,95.37 119.07,165.19zm70.96 -793.97l-28.38 15.57 28.38 -15.57zm0 0l27.68 -17.91 -27.68 17.91zm42.58 -31.13l4.24 4.63c-0.29,-0.3 -5.65,-3.09 -4.24,-4.63zm-369.01 451.46c0,38.31 31.06,174.47 42.28,202.71 189.35,476.75 866.05,268.94 866.05,46.39 0,-46.15 -37.64,-77.65 -56.76,-108.98 -52.15,13.33 -305.56,172.77 -421.23,-6.09 -182.08,-281.57 638.61,142.28 497.95,-342.32 -24.46,-84.29 -37.62,-99.83 -87.07,-154 -49.35,-54.05 -63.55,-74.37 -131.4,-104.95 -356.08,-160.47 -709.82,128.6 -709.82,467.24z"/>
   <path class="fil0" d="M2747.52 3317.22l4.24 4.64c-0.28,-0.3 -5.65,-3.09 -4.24,-4.64zm-42.58 -15.57l4.24 4.65c-0.28,-0.31 -5.65,-3.09 -4.24,-4.65zm-28.38 -15.56l0 0zm0 0l-28.38 -15.57 28.38 15.57zm454.17 -140.11l4.24 4.63c-0.29,-0.29 -5.65,-3.08 -4.24,-4.63zm56.77 -15.57l-27.67 17.91 27.67 -17.91zm28.38 -15.58l-28.38 15.58 28.38 -15.58zm0 0l27.68 -17.89 -27.68 17.89zm-425.78 -435.89c0,-137.01 198.71,-162.29 198.71,0 0,63.54 -44.51,46.7 -156.13,46.7 -32.71,0 -42.58,-10.83 -42.58,-46.7zm184.51 -155.69c134.17,34.29 136.85,221.48 42.58,249.1 26.72,-125.78 66.16,-70.98 -42.58,-249.1zm0 0l-30.51 -8.57 30.51 8.57zm-326.43 747.27c-114.61,-33.56 -211.33,-224.62 -198.51,-403.81 7.05,-98.28 31.8,-165.25 74.35,-230.56 39.02,-59.87 95.65,-125.86 166.74,-144.03 -26.64,39.86 -72.78,55.29 -128.27,139.52 -86.75,131.71 -94.63,333.59 -33.37,473.69 39.89,91.22 76.43,95.37 119.06,165.19zm70.96 -793.97l-28.38 15.57 28.38 -15.57zm0 0l27.68 -17.91 -27.68 17.91zm42.58 -31.13l4.24 4.63c-0.28,-0.3 -5.65,-3.09 -4.24,-4.63zm-369.01 451.46c0,273.45 221.43,498.18 482.55,498.18 148.89,0 425.78,-110.46 425.78,-249.08 0,-46.15 -37.64,-77.65 -56.76,-108.98 -52.15,13.33 -305.56,172.77 -421.22,-6.09 -53.03,-81.99 -34.4,-104.48 64.95,-104.05 128.63,0.55 365.14,39 424.28,-48.99 38.37,-57.09 28.85,-119.96 8.71,-189.28 -33.2,-114.46 -119.75,-214.47 -218.47,-258.95 -275.62,-124.21 -573.26,30.52 -661.67,255.4 -15.98,40.67 -48.15,165.27 -48.15,211.84z"/>
   <path class="fil0" d="M1441.8 1262.23l4.24 4.64c-0.29,-0.3 -5.65,-3.09 -4.24,-4.64zm-42.58 -15.57l30.51 8.57 -30.51 -8.57zm0 0c-40.5,-10.63 -21.36,2.37 -42.58,-31.13 40.5,10.63 21.35,-2.36 42.58,31.13zm425.78 -140.12l4.24 4.66c-0.28,-0.32 -5.65,-3.09 -4.24,-4.66zm42.58 -15.55l4.24 4.63c-0.29,-0.29 -5.65,-3.09 -4.24,-4.63zm56.77 -15.58l-27.67 17.91 27.67 -17.91zm0 0l25.55 -34.25c-6.96,43.58 8.1,20.48 -25.55,34.25zm-184.51 -358.06l0 0zm-113.53 -31.14l-113.56 -15.56c0,-62.85 -9.48,-65.68 16.73,-106.21 104.13,-160.94 293.49,121.77 96.83,121.77zm113.53 31.14c21.58,-49.31 27.81,-84.06 12.69,-137.22 -18.52,-65.13 -38.59,-61.31 -69.46,-111.87 117.92,30.13 171.52,215.48 56.77,249.09zm-383.2 498.18c-60.35,-17.67 -108.69,-85.6 -137.89,-144.55 -36.53,-73.69 -52.42,-145.85 -47.08,-260.31 7.18,-154.01 114.68,-329.14 227.55,-357.99 -20.05,32.86 -306.13,243.73 -156.52,592.03 36.12,84.08 74.86,106.81 113.94,170.82zm70.96 -778.4l-28.38 15.55 28.38 -15.55zm28.39 -15.58l-28.39 15.58 28.39 -15.58zm0 0l27.68 -17.91 -27.68 17.91zm56.76 -31.13l4.24 4.64c-0.28,-0.3 -5.64,-3.09 -4.24,-4.64zm-397.38 451.47c0,290.56 214.05,498.18 439.96,498.18 517.31,0 513.69,-342.49 397.4,-342.49 -87.85,0 -245.98,179.96 -402.08,-11.01 -76.05,-93.06 -44.37,-116.38 74.8,-114.45 359.4,5.89 426.64,39.59 426.64,-154.77 0,-194.83 -193.35,-373.63 -397.4,-373.63 -159.66,0 -265.95,15.61 -401.19,151.51 -64.53,64.85 -138.13,215.72 -138.13,346.66z"/>
   <path class="fil0" d="M3613.28 1262.23l30.51 8.57 -30.51 -8.57zm0 0l-28.38 -15.57 28.38 15.57zm-28.38 -15.57l-28.39 -15.56 28.39 15.56zm425.79 -140.12l4.22 4.66c-0.27,-0.32 -5.65,-3.09 -4.22,-4.66zm56.76 -15.55l-27.68 17.89 27.68 -17.89zm28.39 -15.58l-28.39 15.58 28.39 -15.58zm28.38 -15.57l-28.38 15.57 28.38 -15.57zm0 0l0 0zm-241.27 -498.17l0 108.98c-31.83,8.13 -32.64,15.56 -70.97,15.56l-70.96 0c-108.64,0 -41.27,-259.1 141.93,-124.54zm-14.2 -93.41c54.28,15.88 89.97,53.78 103.83,120.33 15.16,72.68 1.81,124.59 -75.45,144.32 80.15,-131.27 42.09,-149.2 -28.38,-264.65zm-312.24 762.84c-115.03,-33.7 -229.69,-242.29 -210.13,-416.03 10.29,-91.45 41.54,-176.12 81.91,-238.38 32.18,-49.63 109.46,-123.9 170.8,-139.56 -27.19,40.73 -333.22,236.61 -170.74,623.19 34.54,82.17 85.9,101.55 128.16,170.78zm42.58 -793.97l27.67 -17.91 -27.67 17.91zm42.57 -31.15l4.24 4.65c-0.28,-0.31 -5.64,-3.09 -4.24,-4.65zm42.58 -15.56l4.24 4.64c-0.28,-0.3 -5.65,-3.09 -4.24,-4.64zm-383.2 404.77c0,196.41 6.92,270 138.06,409.03 265.76,281.77 756.08,67.92 756.08,-97.68 0,-222.25 -204.51,-19.01 -323.23,-34.27 -101.41,-13.04 -173.51,-77.5 -173.51,-199.25l454.16 0c180.86,0 59.23,-529.3 -298.05,-529.3l-99.33 0c-217.2,0 -454.18,224.44 -454.18,451.47z"/>
   <path class="fil0" d="M6877.61 3317.22l4.24 4.64c-0.29,-0.3 -5.65,-3.09 -4.24,-4.64zm567.71 -544.87l30.51 8.55 -30.51 -8.55zm0 0c-45.93,-13.46 -76.12,-39.79 -99.35,-77.86 59.1,15.12 70.05,29.86 99.35,77.86zm-596.09 -155.69c68.66,17.54 86.19,55.57 96.4,127.77 12.72,89.77 11.57,358.45 -51.48,435.29 -48.68,59.32 -101.72,44.48 -44.92,137.5 -49.59,-14.52 -31.87,-5.92 -56.78,-46.7 27.53,-113.03 114.73,-58.05 114.07,-295.21 -0.18,-67.3 1.45,-137.21 0.39,-203.96 -1.63,-101.48 -22.48,-97.03 -57.68,-154.69zm0 0l-14.2 -15.58 14.2 15.58zm-14.2 -15.58l-42.58 0c31.5,-72 11.35,-86.47 99.36,-108.96 -33.75,55.27 -51.08,33.96 -56.78,108.96zm70.97 -124.53l4.23 4.63c-0.27,-0.3 -5.65,-3.09 -4.23,-4.63zm42.58 -15.58l4.23 4.65c-0.27,-0.31 -5.65,-3.09 -4.23,-4.65zm369.01 124.56c33.72,-55.26 88.15,-122.76 156.11,-140.11 -33.73,55.23 -88.15,122.73 -156.11,140.11zm-567.72 -15.58c0,150.19 99.36,51.95 99.36,155.69l0 326.93c0,123.4 -113.54,114.98 -113.54,217.95 0,168.25 681.25,171.28 681.25,0 0,-159.46 -156.13,-33.56 -156.13,-249.1 0,-526.93 38.04,-171.24 227.09,-171.24 282.73,0 299.46,-467.04 28.38,-467.04 -137.09,0 -143.88,127.15 -241.27,155.68 -9.61,-45.21 -18.79,-94.91 -28.38,-140.11 -119.67,-30.58 -496.76,48.4 -496.76,171.24z"/>
   <path class="fil0" d="M8126.57 3239.39l4.24 4.63c-0.28,-0.29 -5.64,-3.09 -4.24,-4.63zm-212.89 93.41c-82.15,-24.07 -113.53,-171.54 -113.53,-264.67 75.8,22.21 -11.08,6.34 113.53,264.67zm198.7 -311.38c118.12,30.2 154.23,185.26 42.57,217.97 69.15,-143.35 12.21,-128.24 -42.57,-217.97zm0 0c-40.5,-10.62 -21.36,2.38 -42.58,-31.13 40.5,10.63 21.35,-2.35 42.58,31.13zm-42.58 -31.13l-28.38 -15.57 28.38 15.57zm-28.38 -15.57c-40.5,-10.63 -21.36,2.37 -42.58,-31.13 40.5,10.63 21.36,-2.35 42.58,31.13zm255.47 -435.9c53,13.54 141.33,92.64 170.31,140.12 -54.78,-14.01 -140.04,-94.79 -170.31,-140.12zm-298.05 404.77c-83.88,-21.44 -151.57,-107.37 -157.17,-217.64 -4.02,-79.39 -2.33,-109.66 25.36,-160.46 27.34,-50.22 47.12,-74.57 103.43,-88.94 -24.69,40.43 -51.93,55.36 -70.82,93.57 -102.96,208.29 83.76,350.37 99.2,373.47zm0 -482.62l-28.38 15.58 28.38 -15.58zm0 0l27.67 -17.89 -27.67 17.89zm369 -31.13l4.25 4.63c-0.29,-0.29 -5.65,-3.08 -4.25,-4.63zm-581.89 249.1c0,229.97 98.48,276.29 264.07,379.75 58,36.25 76.55,38.67 76.55,133.99 -66.5,6.07 -70.8,26.8 -132.42,-25.59 -3.74,-3.16 -97.5,-136.56 -194,-161.22l-29.77 29.62c-75.71,98.48 40.96,359.57 157.5,359.57l283.85 0c193.78,0 402.57,-165.88 338.63,-386.27 -27.68,-95.39 -97.49,-162.16 -177.82,-210.44 -45.03,-27.07 -78.84,-40.73 -121.45,-69.2 -47.12,-31.46 -76.64,-42.73 -81.94,-112.49 113.55,-83.41 113.5,13.97 229.76,91.64 55.4,37.02 153.45,46.83 153.45,-91.64 0,-89.73 -96.79,-233.52 -184.52,-233.52 -192.13,0 -581.89,-35.4 -581.89,295.8z"/>
   <path class="fil0" d="M4379.69 1262.23l30.51 8.57 -30.51 -8.57zm624.48 -529.32l4.24 4.65c-0.29,-0.31 -5.65,-3.09 -4.24,-4.65zm-127.74 -93.41c51.58,15.12 87.35,50.51 113.55,93.41 -61.03,-15.59 -83.36,-43.97 -113.55,-93.41zm-496.74 622.73l-56.22 -17.47c5.48,-77.61 40.72,-69.34 79.22,-128.56 43.25,-66.55 56.89,-301.47 44.89,-395.48 -12.84,-100.58 -27.62,-93.08 -67.89,-159.05 127.42,37.32 101.43,183.93 99.94,358.7 -0.62,71.09 -7.76,147.78 -36.31,193.71 -42.57,68.55 -108.69,45.14 -63.63,148.15zm0 -700.56l-42.58 0c1.55,-75.56 20.64,-103.08 85.16,-108.99 -20.7,19.75 -38.77,39.57 -56.78,62.28 9.98,41.21 -1.12,12.8 14.2,46.71zm42.58 -108.99l0 0zm42.58 -31.13l4.24 4.64c-0.29,-0.3 -5.65,-3.09 -4.24,-4.64zm397.4 108.99c33.73,-55.26 88.16,-122.76 156.11,-140.12 -26.15,39.15 -36.02,30.91 -70.69,78.15 -33.44,45.56 -22.41,45.86 -85.42,61.97zm-581.91 15.55c0,139.62 113.55,-75.92 113.55,311.38 0,55.45 -8.85,167.69 -23.6,207.63 -18.29,49.46 -25.05,36.53 -55.59,63.56 -120.16,106.3 14.5,211.41 178.53,211.41 161.74,0 454.18,40.6 454.18,-140.12 0,-75.04 -82.9,-72.35 -116.88,-105.32 -51.44,-49.92 -39.25,-254.28 -39.25,-346.15 0,-152.12 89.56,46.71 241.28,46.71 258.54,0 315.5,-451.47 -14.2,-451.47 -113.41,0 -120.72,128.67 -212.89,155.67 -1.27,-62.81 -17.11,-102.62 -28.38,-155.67 -166.82,0 -496.75,44.02 -496.75,202.37z"/>
   <path class="fil0" d="M2222.4 514.96c83.55,24.48 181.43,277.98 226.89,373.84l213.07 404.56c-71.67,-6.53 -90.45,-72.57 -132.51,-166 -65.47,-145.39 -225.76,-478.57 -307.45,-612.4zm0 0l-28.4 -15.57 28.4 15.57zm-28.4 -15.57l-28.38 -15.56 28.38 15.56zm780.61 62.28c0,68.66 -82.98,212.1 -156.11,233.52 40.46,-66.29 148.72,-187.57 114.66,-281.11 -8.18,-22.47 -99.31,-138.44 -26.05,-96.74 21.3,12.14 67.5,100.25 67.5,144.33zm-808.99 -77.84c-51.16,-14.98 -37.96,-1.41 -42.57,-62.28l56.22 -17.47c-20.87,36.98 -31.11,38.32 -13.65,79.75zm-99.35 -31.15c0,83.3 36.09,64.56 93.91,99.39 67.7,40.78 94.71,134.28 137.84,222.43l127.62 249.23c68.73,134.87 116.75,316.34 250.92,316.34 99.41,0 288.43,-475.4 345.17,-586.6 24.58,-48.14 38.37,-84.64 61.14,-135.34 60.66,-135.13 96.03,-62.68 189.79,-181 -58.17,-120.59 -84.52,-93.41 -298.05,-93.41 -267.49,0 -87.18,199.04 -85.16,202.37 -80.66,379.82 -227.09,108.54 -227.09,31.15 0,-45.25 39.28,-74.43 70.98,-140.11 -76.36,-125.07 -248.7,-93.41 -425.78,-93.41 -87.82,0 -241.29,20.17 -241.29,108.96z"/>
  </g>
 </g>
</svg>
